#!OML:ASF F:\VICON\USERDATA\INSTALL\rory3\rory3.ASF
:FULLY-SPECIFIED
:DEGREES
624
root 0.71718 15.4097 3.24769 8.74232 -36.3718 12.9372
lowerback -0.022894 5.86152 6.9239
upperback 2.13836 7.75447 -1.44872
thorax 3.3581 4.05603 -5.04611
lowerneck 3.97069 -9.97118 -14.2715
upperneck 48.2297 -19.0422 8.23194
head 21.6325 -9.58389 3.8736
rclavicle 3.81667e-014 -7.95139e-015
rhumerus -27.4221 21.0394 -97.5028
rradius 18.6776
rwrist 16.8395
rhand -27.0486 -55.9469
rfingers 7.12502
rthumb -0.467027 -85.9262
lclavicle 3.81667e-014 -7.95139e-015
lhumerus -60.8196 -81.1919 136.448
lradius 84.4518
lwrist 29.1716
lhand 2.0997 -20.3341
lfingers 7.12502
lthumb 27.5999 7.66191
rfemur -30.4313 -3.80193 -4.24773
rtibia 77.6551
rfoot -10.5469 -9.14321
rtoes -5.61815
lfemur -53.9435 -23.7268 -29.8473
ltibia 61.2393
lfoot -21.8361 -5.47813
ltoes 21.7456
625
root 0.720446 15.4123 3.24898 8.59831 -36.5093 13.0907
lowerback -0.0628394 5.84271 6.71043
upperback 2.1522 7.73011 -1.46998
thorax 3.36468 4.03972 -4.94841
lowerneck 4.13185 -9.9176 -14.3966
upperneck 48.0444 -19.065 8.51843
head 21.5272 -9.6043 4.04775
rclavicle -5.88403e-014 7.95139e-015
rhumerus -27.4894 21.1738 -97.5342
rradius 18.7239
rwrist 16.7443
rhand -27.0985 -55.5829
rfingers 7.12502
rthumb -0.515238 -85.562
lclavicle -5.88403e-014 7.95139e-015
lhumerus -61.3073 -81.246 136.958
lradius 84.4136
lwrist 29.1321
lhand 2.20443 -20.2082
lfingers 7.12502
lthumb 27.7001 7.7717
rfemur -30.435 -3.77287 -4.45
rtibia 77.6744
rfoot -10.495 -9.0921
rtoes -5.81299
lfemur -53.8362 -23.6695 -29.9859
ltibia 61.1759
lfoot -21.7976 -5.67258
ltoes 22.6683
626
root 0.724287 15.4106 3.24899 8.53212 -36.6461 13.1432
lowerback -0.228478 5.8289 6.64532
upperback 2.27519 7.70006 -1.51229
thorax 3.5794 4.0335 -4.93225
lowerneck 3.99582 -9.92151 -14.3896
upperneck 47.9769 -19.0988 8.62396
head 21.5484 -9.60455 4.08348
rclavicle -1.4392e-013 3.33958e-014
rhumerus -27.2495 21.4785 -97.5377
rradius 18.7719
rwrist 16.5444
rhand -26.9906 -55.2203
rfingers 7.12502
rthumb -0.410982 -85.1996
lclavicle -1.4392e-013 3.33958e-014
lhumerus -60.2173 -81.4393 135.878
lradius 84.3149
lwrist 29.2788
lhand 2.12221 -20.1581
lfingers 7.12502
lthumb 27.6215 7.83448
rfemur -30.5014 -3.73451 -4.54894
rtibia 77.7165
rfoot -10.3391 -9.08889
rtoes -6.54079
lfemur -53.7565 -23.549 -30.0926
ltibia 61.1418
lfoot -21.8734 -5.42676
ltoes 21.3623
627
root 0.727674 15.403 3.24239 8.70335 -36.7427 12.9294
lowerback -0.341674 5.75841 6.68979
upperback 2.31287 7.59449 -1.45151
thorax 3.66521 3.98386 -4.88651
lowerneck 3.77737 -9.91943 -14.3704
upperneck 48.1167 -19.0315 8.43471
head 21.67 -9.58412 3.98102
rclavicle -4.37326e-014 -2.22639e-014
rhumerus -26.9017 23.696 -97.9896
rradius 18.8327
rwrist 14.6645
rhand -26.6712 -55.6742
rfingers 7.12502
rthumb -0.102535 -85.6539
lclavicle -4.37326e-014 -2.22639e-014
lhumerus -57.8769 -81.4057 133.543
lradius 84.1799
lwrist 29.3523
lhand 3.15811 -20.3608
lfingers 7.12502
lthumb 28.6116 7.46907
rfemur -30.7067 -3.59616 -4.34383
rtibia 77.8068
rfoot -10.3381 -9.14812
rtoes -6.44244
lfemur -53.8415 -23.3451 -30.0026
ltibia 61.1479
lfoot -22.0207 -4.65567
ltoes 18.03
628
root 0.73119 15.3989 3.23362 8.85888 -36.7649 12.7279
lowerback -0.27472 5.63441 6.6549
upperback 2.22483 7.43229 -1.33836
thorax 3.49196 3.89207 -4.7754
lowerneck 3.75051 -9.85504 -14.466
upperneck 48.2157 -18.9009 8.3126
head 21.7193 -9.56542 3.95866
rclavicle -2.06736e-014 2.38542e-014
rhumerus -27.4717 22.2619 -97.7498
rradius 19.1345
rwrist 16.608
rhand -26.4 -55.7897
rfingers 7.12502
rthumb 0.159449 -85.7694
lclavicle -2.06736e-014 2.38542e-014
lhumerus -56.7427 -81.2125 132.404
lradius 84.0715
lwrist 29.2361
lhand 3.66963 -20.3354
lfingers 7.12502
lthumb 29.1002 7.41103
rfemur -30.8519 -3.51146 -4.14131
rtibia 77.8881
rfoot -10.5457 -9.04719
rtoes -5.15217
lfemur -53.9541 -23.2347 -29.8497
ltibia 61.1543
lfoot -22.1087 -4.05964
ltoes 15.681
629
root 0.734902 15.3996 3.22783 8.74702 -36.7715 12.8032
lowerback -0.113126 5.49977 6.45983
upperback 2.1529 7.26646 -1.28454
thorax 3.26988 3.7953 -4.6466
lowerneck 3.82419 -9.7526 -14.6509
upperneck 48.1866 -18.771 8.38445
head 21.6934 -9.55266 4.05851
rclavicle -5.32743e-014 -6.36111e-015
rhumerus -27.3442 25.4971 -98.5232
rradius 19.1795
rwrist 13.6886
rhand -26.2503 -56.1151
rfingers 7.12502
rthumb 0.304024 -86.0947
lclavicle -5.32743e-014 -6.36111e-015
lhumerus -56.9062 -81.0227 132.571
lradius 84.0242
lwrist 29.1564
lhand 2.93422 -19.9015
lfingers 7.12502
lthumb 28.3977 7.96425
rfemur -30.8441 -3.54126 -4.2189
rtibia 77.9329
rfoot -10.616 -8.95106
rtoes -4.63454
lfemur -53.888 -23.1973 -29.935
ltibia 61.1356
lfoot -22.151 -3.79651
ltoes 14.4345
630
root 0.73842 15.4031 3.22876 8.57841 -36.8162 12.9748
lowerback -0.0690051 5.42649 6.2458
upperback 2.1078 7.17477 -1.24943
thorax 3.15319 3.73944 -4.50704
lowerneck 3.97156 -9.67621 -14.8172
upperneck 48.1278 -18.6452 8.38766
head 21.5932 -9.54228 4.12069
rclavicle 1.00983e-013 -9.38264e-014
rhumerus -27.4383 26.7949 -98.8556
rradius 19.1843
rwrist 12.5001
rhand -26.4625 -55.8787
rfingers 7.12502
rthumb 0.099065 -85.8584
lclavicle 1.00983e-013 -9.38264e-014
lhumerus -57.3012 -80.6736 133.091
lradius 83.9085
lwrist 29.0563
lhand 2.70894 -19.7037
lfingers 7.12502
lthumb 28.1824 8.19771
rfemur -30.7969 -3.60301 -4.4115
rtibia 77.9177
rfoot -10.4916 -8.99477
rtoes -5.26591
lfemur -53.7657 -23.1706 -30.1388
ltibia 61.119
lfoot -22.1756 -3.72042
ltoes 13.9466
631
root 0.741243 15.4072 3.2312 8.72561 -36.8578 12.739
lowerback -0.0863931 5.42814 6.37739
upperback 2.02039 7.17317 -1.14511
thorax 3.07463 3.73503 -4.47512
lowerneck 4.04352 -9.68414 -14.8054
upperneck 48.1599 -18.5835 8.17961
head 21.5207 -9.53474 4.02329
rclavicle -3.97569e-015 2.70347e-014
rhumerus -27.5307 26.7814 -98.8656
rradius 19.1285
rwrist 12.5943
rhand -26.3575 -55.9248
rfingers 7.12502
rthumb 0.20046 -85.9045
lclavicle -3.97569e-015 2.70347e-014
lhumerus -57.2964 -80.3718 133.213
lradius 83.7905
lwrist 28.3359
lhand 4.43089 -20.1857
lfingers 7.12502
lthumb 29.827 7.43278
rfemur -30.7802 -3.53257 -4.20918
rtibia 77.8596
rfoot -10.6083 -8.95214
rtoes -4.53476
lfemur -53.8114 -23.1102 -29.9447
ltibia 61.1619
lfoot -22.183 -3.85714
ltoes 14.462
632
root 0.744345 15.4097 3.22979 9.09656 -36.8517 12.2035
lowerback -0.113725 5.45108 6.77071
upperback 2.01338 7.19341 -1.05255
thorax 3.12405 3.75308 -4.59035
lowerneck 3.76352 -9.78436 -14.6417
upperneck 48.2637 -18.7006 8.04843
head 21.6669 -9.5495 3.8849
rclavicle -1.82882e-014 -9.54166e-015
rhumerus -27.3224 26.8509 -98.8581
rradius 19.0949
rwrist 12.537
rhand -26.2184 -56.2276
rfingers 7.12502
rthumb 0.334855 -86.207
lclavicle -1.82882e-014 -9.54166e-015
lhumerus -55.0724 -80.466 131.009
lradius 83.7377
lwrist 26.4421
lhand 8.29655 -20.8454
lfingers 7.12502
lthumb 33.5089 6.04598
rfemur -30.799 -3.38045 -3.6982
rtibia 77.7922
rfoot -10.8701 -8.80559
rtoes -3.4648
lfemur -53.9883 -23.0342 -29.4464
ltibia 61.2497
lfoot -22.2009 -4.05338
ltoes 15.0983
633
root 0.74738 15.4121 3.22753 9.3038 -36.8291 11.913
lowerback -0.224151 5.46857 7.01219
upperback 2.12286 7.20236 -1.07709
thorax 3.33673 3.77282 -4.72817
lowerneck 3.43516 -9.88316 -14.4729
upperneck 48.2608 -18.8929 8.14906
head 21.8177 -9.57227 3.84797
rclavicle -2.3059e-014 1.90833e-014
rhumerus -26.8298 27.1661 -98.9213
rradius 18.9398
rwrist 12.2466
rhand -26.4379 -56.1495
rfingers 7.12502
rthumb 0.122803 -86.1292
lclavicle -2.3059e-014 1.90833e-014
lhumerus -56.7639 -81.1766 132.591
lradius 84.048
lwrist 27.5946
lhand 4.93762 -19.7856
lfingers 7.12502
lthumb 30.3105 7.745
rfemur -30.8091 -3.32101 -3.41582
rtibia 77.7227
rfoot -10.8947 -8.7989
rtoes -3.93368
lfemur -54.0856 -23.0015 -29.1763
ltibia 61.3075
lfoot -22.2633 -4.07733
ltoes 14.9705
